<?xml version="1.0" standalone="no"?>
<!DOCTYPE svg PUBLIC "-//W3C//DTD SVG 20010904//EN"
 "http://www.w3.org/TR/2001/REC-SVG-20010904/DTD/svg10.dtd">
<svg version="1.0" xmlns="http://www.w3.org/2000/svg"
 width="460.000000pt" height="460.000000pt" viewBox="0 0 460.000000 460.000000"
 preserveAspectRatio="xMidYMid meet">
<metadata>
Created by potrace 1.16, written by Peter Selinger 2001-2019
</metadata>
<g transform="translate(0.000000,460.000000) scale(0.100000,-0.100000)"
fill="#000000" stroke="none">
<path d="M2160 4297 c-3 -3 -32 -7 -65 -10 -74 -6 -75 -6 -50 -17 13 -6 -11
-8 -69 -7 -73 1 -90 -2 -98 -16 -5 -9 -17 -17 -26 -17 -34 0 12 -20 48 -20
l35 -1 -34 -15 c-27 -11 -42 -12 -64 -4 -37 13 -47 13 -27 0 11 -7 -2 -10 -42
-10 -62 0 -75 12 -30 28 22 9 23 11 6 11 -11 1 -24 -3 -30 -8 -15 -14 -62 -22
-69 -12 -7 13 -56 -5 -127 -46 -31 -18 -60 -33 -65 -33 -4 0 -49 -42 -99 -93
-107 -108 -147 -177 -199 -339 -20 -62 -45 -135 -56 -163 -26 -64 -39 -177
-35 -285 7 -153 24 -209 101 -330 19 -30 35 -63 35 -73 0 -10 10 -37 22 -60
24 -47 40 -101 40 -133 0 -25 38 -49 72 -46 13 1 30 -6 38 -16 24 -28 61 -140
55 -168 -3 -16 0 -27 8 -31 8 -2 17 -23 20 -46 4 -23 15 -57 26 -75 29 -51 23
-57 -21 -22 -22 17 -40 38 -40 46 0 12 -2 12 -14 2 -10 -10 -11 -18 -4 -33 12
-22 48 -60 48 -49 0 3 11 -1 25 -10 14 -9 30 -14 34 -11 13 7 52 -77 58 -124
4 -32 9 -38 24 -34 12 4 21 -1 25 -13 3 -11 15 -39 27 -64 12 -25 24 -52 27
-60 13 -35 52 -87 84 -110 23 -16 37 -36 41 -57 3 -18 10 -33 15 -33 5 0 12
-11 16 -23 5 -23 18 -32 123 -87 27 -14 74 -53 106 -87 32 -35 62 -63 67 -63
5 0 29 -16 52 -35 24 -20 54 -35 68 -35 14 0 28 -7 32 -15 4 -10 14 -13 35 -9
22 5 41 0 68 -17 31 -18 50 -22 103 -20 36 1 67 6 70 10 11 16 43 21 57 9 11
-9 21 -8 44 6 16 9 34 16 41 14 20 -4 69 27 121 76 26 25 63 50 81 57 28 10
37 20 46 56 7 24 15 43 19 43 9 0 48 105 61 167 9 39 22 62 51 90 29 29 43 53
54 98 8 33 19 69 25 80 35 75 39 114 28 275 -1 8 0 46 0 84 l2 69 31 -7 32 -6
-26 20 c-28 22 -33 52 -42 248 -6 121 -6 122 43 79 25 -23 28 -56 8 -95 -24
-46 -30 -92 -13 -92 20 0 117 129 116 155 -2 54 -68 112 -136 119 -30 3 -35
16 -47 125 -5 40 -4 52 3 41 9 -13 11 -12 11 3 0 10 11 22 24 26 18 8 24 19
30 58 11 83 18 393 8 406 -15 20 -41 100 -48 147 -4 25 -17 63 -30 86 -13 22
-24 53 -24 68 0 19 -7 29 -24 36 -13 5 -27 18 -31 29 -3 12 -26 35 -51 51 -25
18 -44 39 -44 50 0 24 -48 64 -122 101 -32 16 -66 39 -76 51 -17 21 -107 68
-130 68 -7 0 -55 20 -106 45 -92 44 -160 58 -168 34 -2 -7 -12 -7 -32 1 -32
12 -168 25 -176 17z m360 -461 c30 0 61 -5 68 -9 6 -5 17 -5 23 -1 19 11 87
-17 93 -38 2 -11 9 -17 15 -13 7 4 10 -3 9 -17 -1 -13 8 -61 20 -108 11 -47
26 -118 33 -158 12 -80 3 -66 132 -183 31 -29 57 -57 57 -63 -1 -28 66 -206
77 -206 7 0 27 9 45 20 37 22 48 25 48 11 0 -5 -16 -15 -35 -22 -19 -7 -32
-15 -30 -17 3 -3 -3 -10 -12 -17 -14 -10 -15 -17 -5 -41 6 -16 22 -67 34 -114
20 -74 23 -108 22 -262 -1 -146 -4 -181 -18 -202 -9 -14 -16 -33 -16 -42 0
-13 -3 -14 -13 -5 -19 15 -28 3 -20 -27 4 -16 2 -23 -4 -19 -6 4 -14 0 -17 -9
-3 -8 -2 -12 3 -9 5 3 12 1 16 -5 3 -5 0 -10 -8 -10 -9 0 -17 -14 -21 -35 -4
-19 -12 -35 -18 -35 -6 0 -8 -13 -3 -36 4 -22 3 -34 -3 -30 -14 8 -20 -56 -11
-117 14 -94 11 -167 -6 -167 -8 0 -15 -4 -15 -10 0 -5 -9 -10 -21 -10 -11 0
-17 5 -14 10 4 6 -6 10 -22 11 l-28 1 25 8 c22 6 23 8 8 15 -10 4 -18 13 -18
21 0 8 -10 14 -24 14 -19 0 -31 -12 -56 -56 -22 -39 -28 -59 -20 -64 8 -5 8
-13 0 -31 -28 -61 -41 -76 -79 -89 -22 -7 -42 -19 -45 -26 -6 -15 -91 -20 -99
-6 -8 14 14 73 28 77 8 3 23 8 33 12 9 3 21 5 25 4 4 0 11 7 14 16 4 10 13 23
20 28 8 6 10 19 6 33 -4 18 -11 23 -29 19 -13 -2 -24 -3 -24 -1 0 1 -3 10 -7
20 -4 12 -3 15 5 10 7 -4 12 -2 12 3 0 18 -58 13 -68 -6 -7 -11 -18 -14 -39
-10 -16 3 -47 0 -69 -8 -32 -11 -38 -17 -36 -37 2 -12 1 -20 -4 -16 -4 4 -12
4 -18 -1 -16 -12 -57 -21 -50 -10 3 5 -2 9 -11 9 -11 0 -15 5 -11 15 3 9 -1
15 -11 15 -33 0 -93 24 -93 37 0 9 16 13 57 13 31 0 70 4 87 9 58 18 121 34
138 36 9 1 32 13 50 27 46 35 110 57 115 40 3 -8 10 -5 22 9 16 20 21 21 67
11 30 -7 50 -7 52 -1 2 5 12 9 22 9 21 0 35 16 21 24 -5 4 -12 25 -16 49 -10
59 -28 89 -77 131 -45 39 -63 43 -115 24 -30 -11 -35 -10 -72 20 -22 18 -45
32 -50 32 -18 0 -12 16 16 44 22 23 25 29 13 37 -38 23 -100 -14 -100 -60 0
-10 -6 -25 -13 -35 -16 -22 -97 -39 -114 -24 -7 5 -18 6 -24 2 -7 -4 -9 -3 -6
3 11 17 -28 43 -65 45 -25 1 -41 -6 -61 -26 -32 -32 -33 -36 -8 -36 11 0 22
-4 26 -10 3 -5 12 -7 20 -3 8 3 15 0 15 -6 0 -6 -7 -11 -15 -11 -9 0 -15 -9
-15 -24 0 -13 -3 -32 -6 -41 -9 -21 -88 -75 -112 -75 -40 0 -71 -58 -79 -148
-3 -50 -1 -72 10 -86 14 -19 15 -19 62 7 26 15 53 27 59 27 7 0 33 -13 59 -30
26 -16 60 -30 75 -30 23 0 28 -4 27 -24 0 -13 -11 -33 -24 -44 l-25 -19 35
-18 c51 -27 119 -35 176 -20 17 4 23 1 24 -12 1 -17 2 -17 6 0 6 21 17 22 37
1 18 -18 21 -34 6 -34 -5 0 -10 5 -10 10 0 6 -5 10 -11 10 -5 0 -7 -4 -4 -10
3 -5 2 -10 -3 -10 -6 0 -13 -12 -16 -26 -6 -24 -8 -25 -20 -9 -12 16 -14 16
-40 -8 -30 -28 -60 -26 -77 4 -13 25 -29 24 -29 -1 0 -15 -7 -20 -25 -20 -18
0 -25 -5 -25 -20 0 -11 -4 -20 -10 -20 -5 0 -10 7 -10 15 0 8 -9 19 -20 25
-11 6 -20 20 -20 30 0 11 -4 20 -10 20 -5 0 -10 -4 -10 -10 0 -20 -18 -9 -24
14 -3 13 -18 31 -32 41 -25 16 -29 16 -62 1 -35 -17 -36 -17 -59 8 -12 14 -23
30 -23 36 0 6 -4 8 -10 5 -5 -3 -10 0 -10 7 0 23 -33 74 -84 129 -26 29 -59
70 -71 90 -13 20 -58 70 -100 111 -80 79 -118 135 -192 282 -49 98 -74 195
-72 284 1 48 5 58 19 59 13 1 20 -8 25 -35 8 -47 65 -149 102 -183 33 -32 85
-59 110 -59 10 0 -1 9 -25 20 -81 37 -157 145 -168 238 -6 61 0 117 14 108 4
-2 13 2 20 10 7 8 10 14 7 14 -3 0 2 11 11 25 9 14 22 25 29 25 8 0 16 8 19
18 12 36 67 66 121 66 27 0 53 4 56 9 8 12 31 -1 24 -14 -3 -5 1 -6 9 -3 9 3
16 1 16 -5 0 -6 -7 -11 -15 -11 -8 0 -15 -5 -15 -11 0 -6 -8 -8 -18 -5 -25 8
-57 -17 -46 -35 12 -18 44 -21 44 -3 0 8 5 14 10 14 6 0 10 -12 10 -26 0 -14
-4 -23 -10 -19 -6 4 -10 -6 -10 -23 0 -16 -3 -31 -6 -35 -8 -7 -34 17 -34 32
0 15 -23 14 -38 -1 -9 -9 -12 -9 -12 0 0 7 -5 12 -11 12 -5 0 -8 -4 -4 -9 3
-6 -8 -24 -25 -41 -31 -32 -36 -28 -31 23 1 9 -3 17 -10 17 -7 0 -10 -11 -7
-30 3 -17 1 -33 -4 -36 -4 -3 -3 -14 2 -25 7 -13 7 -19 0 -19 -17 0 -11 -30 8
-36 37 -13 81 -35 87 -44 9 -14 91 -12 107 3 7 6 31 13 53 13 77 2 102 13 111
48 4 17 7 37 7 44 -1 7 6 12 16 10 20 -4 22 -65 3 -90 -8 -10 -10 -18 -3 -22
5 -4 12 3 16 14 4 13 15 20 32 20 22 0 24 -3 19 -26 -4 -14 -25 -54 -46 -88
-52 -82 -113 -117 -220 -127 l-75 -7 80 2 c100 2 161 29 209 92 27 34 36 41
47 31 11 -10 11 -9 -1 6 -11 16 -11 20 5 35 17 16 17 16 12 0 -3 -10 -2 -20 2
-22 16 -10 42 114 46 217 1 56 3 105 4 109 1 9 90 38 117 38 37 0 56 -11 44
-24 -7 -9 -5 -19 5 -32 8 -11 15 -14 15 -6 0 6 4 12 10 12 5 0 7 -6 4 -13 -9
-24 96 -223 115 -219 7 1 27 -6 44 -16 49 -29 154 -55 196 -48 70 13 92 18 88
22 -2 2 -28 -1 -58 -6 -78 -15 -174 9 -239 61 -43 34 -92 94 -61 75 12 -8 51
28 51 47 0 7 9 13 20 13 11 0 20 -4 20 -8 0 -4 5 -8 11 -8 5 0 7 5 3 12 -5 8
2 9 25 5 22 -5 37 -2 46 7 8 7 32 16 55 20 54 8 100 32 100 51 0 8 5 15 11 15
7 0 9 12 7 32 -5 33 15 68 27 48 4 -7 13 -7 26 0 11 6 17 16 13 22 -4 7 -9 6
-15 -3 -9 -15 -12 -7 -10 27 2 22 -25 52 -36 40 -4 -3 2 -13 13 -21 17 -13 17
-14 2 -15 -10 0 -18 3 -18 8 0 16 -90 43 -134 41 -54 -4 -69 6 -32 21 43 16
117 12 138 -7 17 -15 20 -15 28 -3 17 27 -35 43 -114 37 -43 -3 -59 -2 -41 3
l30 8 -35 1 c-30 1 -32 3 -16 12 13 8 25 8 40 1 11 -6 49 -13 83 -16 76 -7
118 -23 165 -65 52 -45 70 -91 71 -180 2 -107 -35 -178 -128 -246 -12 -9 -15
-14 -7 -15 7 0 35 22 62 50 66 68 94 142 87 230 -3 36 -9 73 -12 82 -5 13 2
19 33 27 22 6 43 19 46 27 5 14 1 16 -31 11 -21 -3 -48 -9 -60 -13 -17 -4 -23
-2 -23 8 0 16 -34 50 -67 67 -33 17 -112 32 -163 31 -34 0 -41 2 -30 10 13 9
12 11 -5 9 -11 -1 -31 0 -45 1 -23 1 -23 3 10 17 28 12 59 14 150 10 l115 -5
-39 31 c-22 18 -42 30 -44 29 -3 -2 -8 1 -12 7 -13 22 -138 49 -180 40 -21 -5
-60 -10 -86 -11 -27 -1 -60 -7 -74 -15 -14 -7 -31 -13 -37 -13 -7 0 -13 -4
-13 -8 0 -10 -60 -32 -87 -32 -11 0 -25 -10 -31 -25 -6 -14 -16 -25 -20 -25
-5 0 -9 -12 -9 -27 0 -16 -3 -36 -7 -45 -6 -13 0 -26 21 -46 31 -32 42 -70 21
-83 -7 -5 -31 -9 -53 -9 -48 0 -86 -10 -81 -19 3 -4 -11 -7 -30 -7 -19 0 -34
3 -34 8 0 4 -9 16 -21 27 -12 11 -16 22 -11 25 15 9 7 58 -12 68 -9 5 -16 15
-16 23 0 23 -36 37 -52 21 -11 -11 -19 -11 -34 -3 -23 13 -84 17 -84 5 0 -4
-24 -8 -53 -8 -29 0 -61 -6 -72 -14 -11 -7 -36 -17 -55 -21 -84 -18 -179 -124
-190 -212 -3 -24 -2 -43 2 -43 5 0 22 15 38 33 16 17 30 27 30 22 0 -6 -13
-25 -29 -42 -16 -18 -26 -34 -24 -37 6 -5 -40 -26 -57 -26 -5 0 -18 30 -31 67
-21 64 -21 69 -6 137 26 115 28 147 14 238 -8 48 -10 93 -5 100 4 7 8 21 8 31
0 10 12 39 27 65 15 25 28 53 29 60 3 20 33 50 57 58 24 8 47 28 47 42 0 6 7
12 15 16 8 3 15 15 15 26 0 29 25 35 58 14 19 -13 52 -19 118 -22 84 -4 93 -2
120 19 41 35 85 82 114 123 16 23 33 36 48 36 24 0 62 20 98 52 11 10 42 21
70 24 27 4 56 12 64 19 24 20 42 23 100 18 30 -3 80 -6 110 -7z"/>
<path d="M3320 3053 c-8 -4 -20 -13 -27 -22 -15 -19 -17 -45 -3 -36 5 3 16 -5
24 -17 16 -25 46 -176 47 -242 l0 -41 14 50 c18 70 37 233 29 259 -14 46 -44
64 -84 49z"/>
<path d="M1189 2573 c-9 -2 -19 -16 -22 -30 -6 -34 18 -116 39 -134 9 -8 27
-30 40 -49 12 -19 34 -48 49 -65 l26 -30 -16 39 c-8 22 -19 44 -24 50 -4 6
-11 20 -14 31 -7 20 -7 20 8 1 23 -30 19 2 -6 48 -11 21 -21 58 -22 83 -2 47
-20 64 -58 56z"/>
<path d="M1626 1709 c-3 -35 -3 -97 0 -139 6 -68 -16 -293 -33 -336 -3 -8 -1
-20 5 -27 11 -13 27 -145 37 -302 4 -55 10 -116 14 -135 7 -31 8 -27 13 35 3
38 4 74 1 79 -12 19 -12 196 0 208 9 10 12 84 11 276 -1 145 0 261 3 258 6 -6
48 -191 63 -275 12 -70 20 -76 20 -15 0 27 5 78 10 113 9 54 8 66 -5 82 -18
19 -17 54 2 54 20 0 25 13 18 44 -8 35 -21 40 -30 11 -7 -22 -25 -27 -25 -7 0
7 -7 22 -15 33 -15 19 -15 19 -30 0 -14 -19 -15 -18 -15 18 0 22 4 35 10 31
12 -8 50 12 50 26 0 6 -7 8 -15 5 -9 -3 -18 1 -21 9 -6 15 -35 22 -33 8 5 -28
-3 -35 -15 -14 -12 22 -13 19 -20 -40z"/>
<path d="M3165 1731 c-4 -7 -3 -24 1 -39 5 -15 9 -81 9 -147 1 -66 5 -142 9
-169 7 -35 5 -50 -4 -56 -6 -4 -15 -23 -19 -41 -4 -19 -11 -34 -16 -34 -17 0
-75 -57 -69 -67 3 -5 -3 -12 -15 -15 -12 -3 -21 -10 -21 -15 0 -5 -5 -6 -10
-3 -6 3 -13 -2 -16 -12 -4 -10 -33 -43 -64 -73 -81 -80 -190 -217 -190 -241 0
-11 -6 -27 -14 -35 -10 -9 -13 -27 -10 -55 3 -23 1 -45 -5 -48 -6 -4 -4 -13 4
-25 14 -18 16 -17 52 14 21 18 45 47 53 64 29 60 134 156 163 148 4 -1 7 2 7
7 0 5 7 12 16 15 13 5 15 2 11 -14 -3 -12 -1 -18 5 -14 5 3 7 17 4 30 -4 14
-2 24 4 24 5 0 10 -5 10 -12 0 -51 95 150 131 277 32 114 34 127 31 260 -3
163 -34 312 -57 276z"/>
<path d="M2080 956 c0 -4 6 -14 13 -21 22 -26 107 -129 150 -185 24 -30 54
-60 68 -67 13 -7 49 -23 79 -37 30 -14 77 -41 104 -61 26 -19 62 -39 78 -43
38 -10 100 -3 92 10 -3 5 -20 6 -37 3 -22 -4 -28 -3 -18 3 11 8 10 12 -7 21
-11 6 -28 11 -36 11 -9 0 -16 4 -16 9 0 6 -31 26 -70 47 -38 20 -67 40 -65 44
3 5 1 11 -5 15 -5 3 -10 0 -10 -7 -1 -9 -4 -8 -13 3 -7 9 -23 22 -37 29 -44
23 -119 86 -222 187 -27 25 -48 43 -48 39z"/>
<path d="M1105 437 c-10 -28 -24 -61 -31 -72 -7 -11 -19 -47 -28 -80 -22 -85
-61 -189 -81 -217 l-17 -23 6 27 c4 16 2 28 -4 28 -9 0 -14 -15 -23 -73 l-4
-27 107 0 107 0 7 125 c4 69 4 140 0 159 -7 40 -34 58 -34 24 0 -17 -3 -19
-12 -10 -8 8 -9 18 -1 34 12 26 36 148 31 154 -3 2 -13 -20 -23 -49z"/>
</g>
</svg>
